<svg width="35" height="20" viewBox="0 0 35 20" fill="none" xmlns="http://www.w3.org/2000/svg">
<path d="M28.2083 5.71429V3.35714H29.1667H29.6667V2.85714V1.42857V0.928571H29.1667H25.2917V0.5H34.5V0.928571H30.625H30.125V1.42857V2.85714V3.35714H30.625H31.5833V9.5H28.2083V8.57143V8.07143H27.7083H23.1685H22.8825L22.7376 8.31795L22.4065 8.8808L22.1361 9.34056L22.6124 9.58073C24.4358 10.5002 25.9643 11.8928 27.0316 13.6047C28.0989 15.3165 28.6642 17.282 28.6667 19.2861C28.6666 19.3394 28.645 19.3927 28.6032 19.4336C28.561 19.475 28.5016 19.5 28.4375 19.5C28.3734 19.5 28.314 19.475 28.2718 19.4336C28.2299 19.3926 28.2083 19.3392 28.2083 19.2857V19.2851C28.2058 17.3431 27.6543 15.4405 26.6159 13.7883C25.5776 12.1361 24.0934 10.7993 22.3289 9.92486L21.9122 9.71835L21.6761 10.119L20.4212 12.2486H14.6575L13.3851 10.0903L13.1505 9.6925L12.7354 9.89481C10.9542 10.7627 9.45363 12.1004 8.40321 13.759C7.35273 15.4177 6.79433 17.3313 6.79167 19.285V19.2857C6.79167 19.3392 6.77008 19.3926 6.72821 19.4336C6.68599 19.475 6.62657 19.5 6.5625 19.5C6.49843 19.5 6.43901 19.475 6.39679 19.4336C6.35492 19.3926 6.33333 19.3392 6.33333 19.2857H5.83333L6.33333 19.2864C6.33613 17.2715 6.90794 15.2959 7.98647 13.5781C9.06506 11.8603 10.6087 10.467 12.4476 9.55351L12.9288 9.31453L12.6559 8.85178L12.3409 8.31749L12.1959 8.07143H11.9102H7.29167H6.79167V8.57143V9.5H3.41667V3.35714H4.375H4.875V2.85714V1.42857V0.928571H4.375H0.5V0.5H9.70833V0.928571H5.83333H5.33333V1.42857V2.85714V3.35714H5.83333H6.79167V5.71429V6.21429H7.29167H12.1844H12.4702L12.6152 5.96802L14.6577 2.5H20.4212L22.4651 5.96815L22.6101 6.21429H22.8958H27.7083H28.2083V5.71429Z" fill="black" stroke="#FA9924"/>
</svg>
